<svg id="Layer_1" data-name="Layer 1" xmlns="http://www.w3.org/2000/svg" viewBox="0 0 516.23 533.56"><defs><style>.cls-1{fill:#fff;}</style></defs><title>jabka_logo</title><path class="cls-1" d="M771.21,759.9l-8.06,5.47a57.69,57.69,0,0,1-21.1,8.9,17.1,17.1,0,0,0-1.69.49l-.62.09-1.15.07c-1.26.13-2.52.35-3.78.39-5.3.15-10.61.18-15.82-1.06l-2.37-.7c-1.83-1.16-4.26-1.08-5.82-2.9a41,41,0,0,0-3.32-3.13c-.28-.23-.55-.47-.82-.71l0-.09c-.79-1.54-1.64-3.06-2.35-4.64a21.48,21.48,0,0,1-2-8.82v-10c.34-2.18.67-4.36,1-6.53.21-1.19.42-2.38.64-3.57,1-3,1.91-6,2.87-8.95.28-.77.55-1.54.82-2.32l1.25-2.93,1.74-3.58.63-1.13,2.34-4.21h0l6.55-9.48,11.34-13.47,14.85-13,11.41-8.4c.7-.52,1.41-1,2.12-1.54l2.49-1.47,1.08-.67,11.91-7,10.71-5.15,1.28-.81.23,0,.19-.13.77-.34.06,0,7.65-3.08,1.61-.69,1.77-.74,10.69-3.45.59-.12,7.84-2.15,4.74-.75c1.47-3.55,2.91-6.77,4.17-10.06,1.11-2.92,2-5.91,3-8.86.34-.79.68-1.58,1-2.37a67.66,67.66,0,0,0,4.21-12.38q1.17-3.6,2.36-7.2c.35-1.6.69-3.19,1-4.79l.93-1.72c.31-1.38.63-2.76,1-4.14l.57-1.8a.35.35,0,0,0,.05-.41,5.94,5.94,0,0,0,.64-2.18c-.19-1.89.71-3.47,1.16-5.18a24.23,24.23,0,0,0,1.7-8.86l.15-1.19.23-2.37.15-.58c0-1.33.36-2.68-.24-4.06-3.73.4-7.38.74-11,1.2a10.3,10.3,0,0,0-2.41.92,2.64,2.64,0,0,0-.48.14,25.35,25.35,0,0,0-3.39.64c-4.29,1.46-8.78,2.51-12.34,5.6a.42.42,0,0,0-.4.09c-3.19.88-5.74,2.82-8.22,4.88l-1.18,1.16a8.3,8.3,0,0,0-4.14,3.06c-1.06.89-2.65,1.21-3,2.84a7.36,7.36,0,0,0-4.19,4.77l.07.07-.84.59-1.61,2.13a8.32,8.32,0,0,0-2.88,4.43l-1.74,4.16c-1.11,1-1.11,2.31-1.12,3.63l-.6,2.27a7.62,7.62,0,0,0,.39,6,1.65,1.65,0,0,0,.1.58c.51,1.26,1,2.52,1.54,3.77A13.3,13.3,0,0,0,793,617l.93,1.15-.79.55-.65.49v0l-1.13,1.36-2.46,1.55-1.77,1.21-2.95,1.76-2.35,1.14-3,.82a27.47,27.47,0,0,1-9.31.41l-3.15-1.07-1.11-.65a16.25,16.25,0,0,1-5.87-6.7c-.78-1.65-1.37-3.4-2-5.11L757,602.7l.09-.59c.12-.62.25-1.23.37-1.84.29-1.17.58-2.33.88-3.5.78-2,1.55-4,2.33-6,1.35-2.16,2.69-4.33,4-6.5l.68-1.3,4.75-5.11a3.5,3.5,0,0,0,2.4-2.28,3.43,3.43,0,0,0,2.49-2,1.66,1.66,0,0,0,1.52-1.64c1.5-.07,2.46-1.1,3.53-2,2.44-1.44,4.88-2.85,7.3-4.32a18.82,18.82,0,0,0,1.81-1.42l1.76-.61,1-.93,1.73-.56,4.88-2.17,2.81-.82,1.23-.77,2.37-.9,1.2-.42,1.75-.75c2.41.06,4.49-1,6.62-1.92a18.52,18.52,0,0,0,2.59-.5,97.38,97.38,0,0,1,15.71-3.59l2.43-.56,1.91-.35c1-.07,2.09-.08,3.13-.22,1.3-.16,2.59-.43,3.88-.65l6.41-.86,2.65.42a24.06,24.06,0,0,1,1.53,2.77c1,2.41,1.85,4.88,2.76,7.32l.8,4.11c-.82,2.62.33,5.18.22,7.78l-.16,2.27-.51,8.38c-.15,1.34-.31,2.69-.46,4l-.23,3.62-.57,3.56c0,.4,0,.79,0,1.18s-.26.75-.34,1.14c-1.2,6.07-2,12.22-3.68,18.2a11.12,11.12,0,0,0-.08,2.65c-.18.58-.37,1.16-.56,1.75l-.6,1.2c-.08.65-.15,1.3-.23,1.94l.11.09a3.93,3.93,0,0,0-1,3.32c-.52,1.51-1,3-1.55,4.54-.37,1.23-.75,2.47-1.12,3.71l-.49,1.14-1.11,3,9.34,3.09.76.45a31.62,31.62,0,0,1,3.46,4,29.6,29.6,0,0,1,2,4.8l3.64-3.5,3.6-3.44,2.17-1.74h0l5.83-4.38,1.86-1,7.25-3.42c2.41-.34,4.63-1.37,7.16-1.51A13,13,0,0,1,905.22,635c.6.84,1.17,1.7,1.92,2.78.62-1.52,1.14-2.67,1.57-3.85a2.55,2.55,0,0,1,2.41-1.8,29.31,29.31,0,0,1,9.7.73c1.5.43,3,1,4.46,1.48l.75,1a9.77,9.77,0,0,1,3.12,5.33l-.15,1.79-.38,1.23-.21,1.12-1.91,3.49q-2.37,3.6-4.72,7.2l-.6,1.09-3.94,6.6-.64,1.78a2.57,2.57,0,0,0-1.14,2.61,8.19,8.19,0,0,0-1.45,1.69q-3.94,8.41-7.75,16.88c-.63,1.41-1,2.92-1.51,4.38l-.1,0,.07-.06c1.12-.94,2.3-1.82,3.35-2.84s2.2-2.46,3.38-3.63c1.87-1.85,3.81-3.64,5.72-5.46l3-3.4,2.49-2.45.49-.51.67-.67.78-.81.1-.14,1.42-1.44,3.81-3.92,1.54-1.75c1-1.08,1.93-2.16,2.89-3.25a2.3,2.3,0,0,0,1.6-2.32l.75-1.85c.55-1.17,1.1-2.34,1.66-3.51l.6-1.27c.36-1,.47-2.22,1.13-2.94,1.26-1.38,1.56-3.08,2.16-4.69l.33-.64.68-1.17.71-1.71c1.08-.89,1-1.86.07-3,1.23-.12,2.18-.5,2.22-1.85l.54-1.22q1.18-2.65,2.38-5.29l.79-1.63.49-1.32c1.6-1.15,1.67-3.1,2.41-4.7l1.14-2.43c.37-.8.74-1.6,1.1-2.4l.62-1.17a25.7,25.7,0,0,0,3.65-8.11l2.91-5.53,1.32-2.71c.34-.87.69-1.74,1-2.61l1.18-1.79c.55-1.39,1.11-2.78,1.66-4.18.3-.36.74-.69.86-1.11.5-1.69,1.79-2.34,3.33-2.7l2.51-.48,1.22-.06c1.75,0,3.52-.77,5.25.11h.6l3.53.29,4.77,1.48.63.09,4.71,2.32.89.44.42,3.14c0,.44,0,.87,0,1.31l-.31,1.1-1.55,1.79-4.86,5.94a12.06,12.06,0,0,0-1.66,1.61c-1.67,2.36-3.28,4.78-4.92,7.17l-1.11,1.33-2.43,4c-1,.68-1.89,1.41-1.66,2.81-1.48.52-1.84,1.93-2.52,3.09l-.49.76-1.84,2.87c-.25.43-.51.85-.77,1.28a34.4,34.4,0,0,0-4.09,6.63c3-2,5.41-3.54,7.83-5.14.07,0,.09-.16.14-.25l1.8-.59,6.58-.73c.82.25,1.63.53,2.45.77s1.47.37,2.2.56a10.2,10.2,0,0,0,1.14,1.3c2.17,1.74,4.38,3.44,6.57,5.15l2.46,3,1.52,3.09,1.37,3,.15.57.3,1.25c.12.38.24.76.35,1.14.16.76.32,1.52.47,2.28l-.09,1.24a.55.55,0,0,0,0,.54l0,3-.37,2.3c-.1.81-.19,1.62-.29,2.43-.23,1-.47,1.94-.7,2.91l-2.37,7.07c-.57,1-1.21,1.87-1.69,2.86s-.82,2.1-1.22,3.15c-.44.59-.87,1.19-1.31,1.79l-1.84,2.82-1.85,2.56-.84,1.18-1.27,1.62-3.7,4.17-7.14,6.58-1.54,1.26-1.8,1.2-2.48,1.68-1.71,1.26,0,0-.62.09L967.59,704a41.27,41.27,0,0,1-13.06,3.59l-5.28-.2-3.35-1.68a17.82,17.82,0,0,0-4.36-5.17c.14,2.18.3,4,1.88,5.31-.12.69-.35,1.15-1.21,1.26-1.56.19-3.1.58-4.65.88-1.91-.28-3.81-.68-5.73-.81-4.6-.3-9-4.19-9-9l.06-2.36.09-2.4c.86-3,1.73-6,2.57-9,0-.15-.12-.36-.19-.54l.36-.29-.32.35c-1.22,1.31-2.44,2.61-3.65,3.92l-2.25,3-1.12.83-.2.14-3.31,3.48c-.28.29-.55.59-.83.89l-3.4,3.25-7.93,7.49a34.2,34.2,0,0,1-13.5-5.75l-3.39-5a15.72,15.72,0,0,1,.22-6.86c1-3,2.11-6,3.13-9a3.92,3.92,0,0,0,0-1.14.74.74,0,0,0,.21-.07s0-.1,0-.16l-.23.26-5,6.75-.72.92-.92,1.16c-1.61,2-3.25,3.89-4.84,5.86-1,1.2-1.9,2.44-2.84,3.67l-1.74,1.79-1.92,2.29a4.86,4.86,0,0,0-1.15.71,36.73,36.73,0,0,1-7,6.2c-2.58,1.78-5.29,1.84-8.16,1.19-1.23-.28-2.46-.6-3.69-.91l-7-4.31a19.9,19.9,0,0,1-4.52-10.6c-.21-1.73-.21-3.5-.3-5.25.58-2.57,1.17-5.15,1.75-7.73a.22.22,0,0,0,.09-.34l1.59-5c.4-.8.79-1.6,1.19-2.39a.58.58,0,0,0,.18-.41l4-7.29a.59.59,0,0,0,.24-.42l2.75-4.32c.27-1.11-.65-1.58-1.24-2.18-3-3-6.81-4.14-10.8-4.93-.14,0-.34.16-.73.37-1.62,3.9-3.31,8-5,12.07l-1.72,3.6c-.76,1.58-1.56,3.15-2.29,4.74-1.72,3.74-3.41,7.49-5.11,11.24-.31.6-.61,1.21-.91,1.81l-3.24,6.25-1,2c-2,3.52-4.07,7-6.06,10.56a8.32,8.32,0,0,0-.53,1.9l-1,1.09c-.54.91-1.1,1.81-1.63,2.73q-2.24,3.85-4.46,7.73l-8.82,12.79-9.91,12.11a100.84,100.84,0,0,1-14.74,14.4C771.75,759.34,771.49,759.63,771.21,759.9ZM883,651.29a.24.24,0,0,0-.32.24c-2.15,2.3-4.42,4.5-6.42,6.93-2.87,3.49-5.85,6.92-7.85,11a56.33,56.33,0,0,0-6.73,11.9l-.45,1.14-.45,1.42-.43,1.21-1.74,5.06c.94.95-.31,1.71-.22,2.59a6.66,6.66,0,0,0,.34,4.3l3.41-2.85c1.16-.94,2.35-1.83,3.45-2.83a8,8,0,0,0,1.08-1.56l3.08-2.29,3-3,1.11-1.71c.2,0,.46,0,.58-.11a42.84,42.84,0,0,0,7.71-8.85l2-2.42,2.07-2.91c1.17-1.61,2.33-3.23,3.49-4.84l3.15-4.63,4.15-5.86c1.94-3,4.19-5.79,5.59-9-2.2-3-4.28-3.16-6.87-1.83h0l-1.42.46a26.71,26.71,0,0,0-8.12,5.41l-2.35,2.22Zm-80.77,31.57.53-1,1.73-3.24.69-1.12,8.32-15.32a52.27,52.27,0,0,0,4.23-8.54,58.33,58.33,0,0,0-14.07,5.26c-3.29,1.56-6.65,3-9.88,4.69-5.92,3.12-11.88,6.21-17.27,10.23l-7.08,4.79L768,679.68l-4.79,3.56-3.85,3.06-1.45,1.13-2.22,1.78L754,690.57l-1.91,1.62-5.86,5.31-1.74,1.86-4.92,5.27c-1.33,1.56-2.71,3.09-4,4.69a78.79,78.79,0,0,0-11.41,18.49c-1.43,3.43-2.77,6.91-2.84,10.72-.11.38-.21.77-.32,1.15q-.1,3.87-.2,7.72c0,.61,0,1.22.07,1.82l.17,1.2c.19,1.25.38,2.5.56,3.71a21.39,21.39,0,0,0,11,.76c8.24-1.42,15.25-5.52,21.5-11A57.2,57.2,0,0,0,766.56,732a20.8,20.8,0,0,0,2.39-2.09c3.37-4,6.77-7.93,10-12,2.72-3.48,5.18-7.16,7.76-10.75l3.11-4.71.46-.6,6.51-10.17,2.29-3.59c.82-1.37,1.63-2.75,2.44-4.12Zm169.44-36.28c-.61.63-1.22,1.27-1.84,1.9l-1.71,1.58-.59.6c-1.46,1.4-3,2.72-4.33,4.24s-2.66,3.5-4,5.26a10.23,10.23,0,0,0-3.44,4.21l-2.12,2.74c-5,7-9.26,14.31-10.79,23.16l2.76,1.93,2.8,1.92,2.51,1.75c1.3,1.37,2.65,2.63,4.74,1.49a25.3,25.3,0,0,0,4.18-2,31.23,31.23,0,0,0,7.92-8.9l1.68-2.73c.18-.31.37-.61.56-.92l1.74-2.92,1.09-1.87,4.59-10,.21-.64,1.06-3.53.73-1.81,1.43-4.08c.64-2.75,1.42-5.48,1.88-8.26a5.61,5.61,0,0,0-.5-4.3c.11-3.4-1.27-4.46-4.15-3.09a28.7,28.7,0,0,0-3,1.83Z" transform="translate(-702.35 -241.82)"/><path class="cls-1" d="M974.41,292.89l9.58-.48,5.33.23a5.17,5.17,0,0,0,3.58,1.18l7.13,3.51,2.37,1.19,3.56,3,.61.59,5.24,4.77,3.49,4.3,1.89,2.87.58.56,5.36,10.06.52,1.3a16.56,16.56,0,0,0,1.29,3.25c.68,1,0,2.68,1.73,3.32a19.18,19.18,0,0,0,1.64-1.61,46.38,46.38,0,0,1,13-12.56,92.85,92.85,0,0,1,15.31-8.15,18.94,18.94,0,0,0,2.54-1.46l.79-.08,1.27-.51,2.25-.73a6.15,6.15,0,0,0,1.15-.1q5.67-1.68,11.33-3.4l1.12-.27c2.29-.39,4.58-.75,6.86-1.2,1.11-.22,2.2-.6,3.29-.91l3.56-.61a104.8,104.8,0,0,0,12.47-3l1.33-.39,2.34-.65,1-.23a115.12,115.12,0,0,0,20.73-7.58c1.57-.72,3.42-1,4.44-2.69l2.72-1,5-3.24,1.17-.7,3.4-2.5.62-.56c5.93-4.37,10.7-9.88,15.43-15.44a20.66,20.66,0,0,0,4.64-6.06q3.92-4.09,7.82-8.18l1.49-1.48a23.45,23.45,0,0,1,7.95-5.14,5.12,5.12,0,0,1,3.24,0c1.28.43,2.56.89,3.84,1.34l1.2.27a2.87,2.87,0,0,0,1.69,2.77c.42.95.85,1.9,1.27,2.86l1.07,1.76c.91,2.35,1.81,4.69,2.71,7,2.37,7.15,4.71,14.29,5.4,21.86.22,2.42.65,4.83,1,7.24-.22,4.92-.34,9.84-.69,14.75-.24,3.42-.79,6.83-1.2,10.24l-.51,4.1c-.17.58-.33,1.16-.5,1.75l-3,11.29a10.48,10.48,0,0,0-.51,1.07,112.06,112.06,0,0,1-6.9,16.61l-3.94,7.25-3,4.18c-.79,1-1.57,1.93-2.36,2.9l-1.8,1.77-1.17,1.1c-2.54.76-4.06,2.68-5.41,4.79l-.61,1.75h-.06l-3.46,3-1.69,1.29c-1.2.58-2.47,1.08-3,2.49l-3.63,2.18-1.13,1.21a4.5,4.5,0,0,0-1.69.31,85.07,85.07,0,0,1-15.64,7.92c-2.42,1-4.83,2-7.25,3a10,10,0,0,0-1.45.14c-5.06,1.29-10.12,2.61-15.18,3.91l-2.5.66-4.88.85-.67-.05-5.79.76-1.34,0-8.22,1.2c-.71-.24-1.4-.4-1.74.54-2-1.2-4-.24-6-.21h-6.53l-4.78.08-1.71.12-5.92-.27-4.2.08-3-.6-1.7-.15-1.23-1.69-.63-.53c-.05-.4-.09-.81-.14-1.21l.77-4.09h0l2.9-1.41,3-1,8.91-1.73,14.24-1.81,4.21-.71,3.51-1.14c.23.17.5.51.7.48,2.85-.51,5.87-.08,8.56-1.5l5.65-1.21,4.67-.69,7.65-1.87c5-.8,9.7-2.75,14.42-4.53a10,10,0,0,0,1.69-1.1c3.48-.73,6.44-2.59,9.43-4.38s6-3.79,8.9-5.74a19.26,19.26,0,0,0,3-2.42c3.23-3.29,6.36-6.67,9.61-9.94a54,54,0,0,0,8.43-11c.84-1.44,1.77-2.88,1.75-4.65.4-.41,1-.74,1.2-1.23,1.9-3.81,4-7.53,4.62-11.86l1-2.93c1.47-3.52,1.86-7.3,2.53-11,.45-2.48.66-5,1-7.49.25-2.72.65-5.43.68-8.16a41.08,41.08,0,0,0-.61-7c-.45-2.88-1.14-5.72-1.74-8.58-.36-1.38-.72-2.75-1.09-4.13l-1.17-3-.49-1.24-1.17-1.73-2.5-2c-.53.08-1.21,0-1.55.25-1.34,1.13-2.57,2.38-3.85,3.59l-.64,1.19-5.31,5.8-7.68,7.85c-.72.65-1.48,1.26-2.16,1.95A76.11,76.11,0,0,1,1148.71,296a18.93,18.93,0,0,0-1.56,1.28,1.72,1.72,0,0,0-.58.09l-7.69,4.81-6,3.36-1.13.21L1127,308l-3.07,1.08-1.05.59-3.66,1.22-4.73,1.4-2.34,1-2.37.55-13.67,3.59-2.95.75-1.75.52a25.36,25.36,0,0,0-3.14.66c-3.32,1.13-6.61,2.34-9.91,3.53-5.74,1.17-10.92,3.84-16.24,6.13-.24.11-.39.43-.59.64l-3.93,2.08-.66.54,0,0a22,22,0,0,0-2.71,1.05c-4.85,2.65-9,6.28-13,10a5.76,5.76,0,0,0-.87,1.44c-1.06.11-1.24.85-1.24,1.72h0l-1.18,1.23a15.1,15.1,0,0,0-4.06,8.36l-.33.53a10.11,10.11,0,0,0-.82,2.39c-.29,3.36-.47,6.74-.68,10.11l-.39,3.61.12,1.66-.11,1.87.38.13.69-1.14a1.83,1.83,0,0,0,1.9-1.33c1.22-.95,2.77-1.56,3.33-3.2a1.6,1.6,0,0,0,.53-.22q6-6,12-12.07c2.3-1.67,4.61-3.32,6.89-5a127.3,127.3,0,0,1,18.9-11.51c1.13-.56,2.17-1.28,3.26-1.93l1.23-.45,2.35-.72,5.35-2.27,3-1.2a10.84,10.84,0,0,0,5.41-1.67l2.28-.8,6.49-1.75,5.86-1.6,6.81-1.13c1.16-.11,2.34-.14,3.48-.36a108.07,108.07,0,0,1,14.13-1.55c.67,0,1.34-.08,2,0,2.47.19,5-.26,7.39.67,1.2,1.52.92,3.06.07,4.61l-5.28,3.05-3.61,1.53c-6.26,1.56-12.59,2.93-18.78,4.73a89.71,89.71,0,0,0-14.38,5,19.34,19.34,0,0,0-7.17,3.17l-1.73.43-1.57,1.38-1.35.39a14.63,14.63,0,0,0-7.18,3.57l-1.19.51c-2,.67-3.94,1.31-5.36,2.95-2.91.75-5.26,2.54-7.7,4.16-3.16,1.45-5.69,3.83-8.47,5.83-.28.21-.38.65-.57,1l-2.26,1.5-3.62,3.44-1.31,1.2-1.67,1.78-3.54,4.24-1.15,1.18c-1.87,2.49-3.78,4.95-5.59,7.48-.54.75-1.25,1.6-.66,2.69,0,.36,0,.73,0,1.09l-.6-.08-.9,0c-.42.79-.84,1.58-1.25,2.38l-.6,1.25c0,.22,0,.6.07.63.61.18,1.25.29,1.88.42l1.12.25,5.32,1.38,4.2.89,5.93,1.18,4.21,1.05,4.69.72a44.5,44.5,0,0,0,12.39,3.08l9.56,2.86,2.34.66,1.71.71,4.83,1.58.15.1.18,0a4.09,4.09,0,0,0,3.27,1.06l1.84,1.16,2.2.8a9,9,0,0,0,4.78,1.77l1.2.52.65.53c2.68,1.13,5.36,2.28,8,3.38.24.1.57,0,.86,0a1.82,1.82,0,0,0,1.79,1.44l2.17.77a3.65,3.65,0,0,0,3,1.67,8.34,8.34,0,0,0,4.73,2.46c1.86,1.21,3.71,2.44,5.59,3.62a3.4,3.4,0,0,0,1.13.25l2.37,1.9,1.31.55c.06.18.08.44.21.52,2.61,1.66,5.25,3.29,7.87,4.93l3.46,2.49,3,2.36,2.55,2.14,5.86,4.86,1,.8c.87,1.12,1.63,2.36,3.14,2.75a1.75,1.75,0,0,0,.56.18c.77.82,1.54,1.65,2.32,2.47l6.57,6.88,1,.83c2.1,2.71,4.18,5.43,6.32,8.11a8.62,8.62,0,0,0,1.51,1.21c.62,1,1.24,1.94,1.87,2.9s1.51,1.95,2.26,2.92l2.47,3.59,2,2.86,1.69,3.13.64,1,2.64,5,.69,1.23,1.29,2.15c.49,1,1,2,1.46,3.09,1.56,3.87,3.06,7.75,4.6,11.62a8.74,8.74,0,0,0,.74,1.25l.53,1.25,2.94,10.06q.72,2.78,1.46,5.53a.91.91,0,0,0,.13.48c0,.38.09.75.14,1.12,0,.77.28,1.21,1.09,1.22-.7,1-1.05,2-.08,3.06l.16,1.63v.7l.28.61.13.12.21,2.74c.16.62.31,1.24.46,1.86.11.44.23.87.34,1.3l.16,2.34c0,.36.11.73.16,1.1-.71.59-.59,1.19,0,1.79.07,1.75.09,3.5.23,5.24a8.78,8.78,0,0,0,.58,1.85l.24,4.13c.1.82.19,1.64.29,2.46l-.06,1.11c0,2.38.07,4.76.1,7.15l-.09,4.12c0,1.36-.07,2.72-.11,4.08,0,.45-.06.9-.1,1.35s0,1-.07,1.49c-.09.65-.18,1.3-.26,1.95l-.64,7.15c0,.4,0,.8.08,1.19q-.51,2.63-1,5.23c-.09.24-.18.47-.26.71s0,.71,0,1.06l-.63,2.6-1,6c-1,3.23-2,6.47-3,9.71a6.32,6.32,0,0,0-.11,1.45.63.63,0,0,0-.23.46q-3.5,8.94-7,17.89l-4.23,8.88-1.63,3c-.3.39-.64.75-.9,1.16-2.17,3.5-4.32,7-6.48,10.51l-1,1.36-6.16,8.26-.93,1.27,0,.06-.46.5a.7.7,0,0,0-.28.43l-4.12,4.55c-2.22,2.27-4.46,4.54-6.66,6.85a3.35,3.35,0,0,0-.44,1.11v0c-.24,0-.58-.14-.72,0-3.17,2.72-6.31,5.48-9.46,8.23L1159,699c-1.24.75-2.47,1.54-3.74,2.24-3.31,1.86-6.64,3.67-10,5.5l-2.3.91-6.54,1.72-1.76.31-.59,0-2.39-.38c-.39-.49-.67-1.21-1.18-1.43a30,30,0,0,0-3.57-1.06l-1.08-.42-1.73-1.08-.67-.46-2.13-1.5a.4.4,0,0,0-.32-.22l-3-3.55a13.86,13.86,0,0,1,.24-10c1-2.63,1.81-5.32,2.7-8-1.85,2-3.38,4.28-5,6.41-2.1,2.67-4.37,5.21-6.47,7.9a52.36,52.36,0,0,1-7.15,8.09,6.24,6.24,0,0,0-.95,1.43h.09c-.26.2-.52.4-.77.61l-4,3.43-.59.61-3.5,1.89-1.67.31-1.82-.19h-1.24a.47.47,0,0,0-.56-.07l-7.48-2.68a24.09,24.09,0,0,1-5.45-4.72l-.74-.87c-.16-.43-.33-.86-.49-1.28a39.17,39.17,0,0,1-1.92-8.26c.19-1.61.39-3.22.58-4.83a29.9,29.9,0,0,0-5.91,5.93l-6.61,7.08-3.5,3-4.08,3.35-1.79-.18-3.58-.87-1.22-.33c-1.06-.48-2.13-.94-3.17-1.45s-2-1-3-1.62a12,12,0,0,1-4.37-4.89c-.26-1-.53-1.89-.8-2.83v-1.19l-.06-1.19.24-1.78c.24-1.33.48-2.67.71-4,.74-3,1.47-6,2.21-9.06.25-1.17.51-2.34.76-3.51,1.5-4.88,1.76-7.16,1-8.77a23.13,23.13,0,0,0-2,2.42c-2.09,3.28-4.11,6.59-6.15,9.9l-3.12,6.48-.66,1.78c-.94,1.92-2.41,3.64-2.3,6-.16.38-.31.77-.47,1.15q-1.19,3.88-2.36,7.75c-.37,1.58-.74,3.16-1.1,4.75-.1.43-.19.86-.28,1.29l0,.13-1.24.56-.71.24a1.11,1.11,0,0,0-1.7.06c-.78,0-1.57-.05-2.34,0a18.26,18.26,0,0,1-12.8-3L999,703.12a26.06,26.06,0,0,1,.32-9.44c.18-.61.35-1.23.53-1.84s.25-1.17.38-1.76c.71-2.18,1.41-4.37,2.12-6.55l1.11-2.94.66-1.81.54-1.09c.19-.61.38-1.21.56-1.81l.26-1.36a27,27,0,0,0,3.43-8.17,5.2,5.2,0,0,0,1.41-3.55c.76-.16.78-.69.64-1.3l.47-1,.31-1.23.84-1.07.63-1.41.08-.25c.51-1.26,1-2.53,1.52-3.8,1.74-3.57,3.48-7.14,5.18-10.74.14-.3,0-.76,0-1.14l.82-1.08c.34-.61.67-1.23,1-1.84l2.64-5.91.84-1.8c.08-.22.16-.44.23-.66.16-.39.31-.79.47-1.18,1.87-3.59,3.77-7.17,5.59-10.79.65-1.29,1.09-2.69,1.63-4,.28-.56.56-1.12.85-1.68q1.65-3.3,3.32-6.58c.58-1.21,1.16-2.42,1.75-3.63l.6-1.74c.24-.58.48-1.15.71-1.73h0l2.34-4.16c.53-1.16,1-2.35,1.61-3.46a3.27,3.27,0,0,1,1.33-1.42c2.9-1.33,6.06-1.31,9.15-1.4a52.73,52.73,0,0,1,5.59.41l.93.09.24.09.24-.08v0a8.43,8.43,0,0,0,4.65,1.55l2.93,1.45,1.83.94h0c1,2.08.36,4.28.44,6.42l0,0a4.75,4.75,0,0,0-3,2.92c-1,1.22-2.56,2-2.86,3.7a6.1,6.1,0,0,0-1.27.95c-.64.79-1.17,1.67-1.75,2.51l-.5.7-1.14,1.79-1.05,1.25-3.22,4.68-1.29,2.18c-.36.46-.73.91-1.09,1.36-.36.6-.73,1.19-1.1,1.79l-1.23,1.78-1.79,2.89-2.4,3.53c-.54.78-1.12,1.52-1.59,2.33s-.85,1.69-1.27,2.54l-2.49,4c-.47.81-.93,1.62-1.39,2.43l-4.89,8.67c0,.07,0,.19,0,.29a15.09,15.09,0,0,0-3.75,7.07c-.07.18-.15.35-.22.53.1-.15.2-.3.29-.46L1038,651l9.11-10.64.67-.67q2.25-2.07,4.49-4.15l7.67-3.62a10.56,10.56,0,0,1,5.7.85,9,9,0,0,0,1.67.39l2.71,1.64c.28,1.75,2,2.47,2.83,3.77.45.77.9,1.53,1.36,2.29l1,2,1.14,4.2.24,1.56c0,1-.06,2-.08,3l0,1.09-1,4.8-3.2,5.29-3.56,3.53h0l-.64.63,0,0-3,1.19a52,52,0,0,1-10.56,1.39v4.61c-.29,3.12-.69,6.23-.85,9.36s-1.49,6-.9,9.56c1.64-1.52,3-2.73,4.31-4,3.52-3.53,7-7.09,10.52-10.64h0l.27-.73a.25.25,0,0,0,.12-.33l.18.14.07-.22-.22,0c1.7-1.41,3.47-2.74,5.09-4.24,1.19-1.1,2.19-2.42,3.27-3.64,1.77-1.62,3.73-3.07,4.85-5.3a15.5,15.5,0,0,0,2-1.75c1.65-2.07,3.17-4.24,4.83-6.3s3.53-4.18,5.31-6.26a2.58,2.58,0,0,0,1.69-2.19l2.36-1.72,2.75-2.58.61-.51c.92-.43,1.94-.77,2.19-2l1.27-.79,7.25-4.83,1.13-.45c2-.87,4.07-1.76,6.12-2.6,1.07-.44,2.2-1.15,3.27-1.11,3.17.11,6.41-.17,9.47,1l4.12,3a.72.72,0,0,0,.22.46l2.73,4.38a14.09,14.09,0,0,0,2.1-5.35,30.22,30.22,0,0,1,14.07.94l1.47.75,4.41,3.82,0,1.41,0,2.39c-.4,1.38-.79,2.76-1.19,4.14l-.63,1.09c-.39.61-.78,1.21-1.16,1.82h0l-2.81,4.24-1.38,2.2-2.3,4.29-1.31,1.84c-.37.76-.74,1.53-1.12,2.29-.92,1.7-1.92,3.37-2.76,5.12-1.91,4-3.73,8-5.58,12a80.72,80.72,0,0,0-4.69,10.57c3-1.91,5.68-3,7.79-5.09l.65-.56,1.27-1.08,1.55-1.4,2.52-2.15a59.84,59.84,0,0,0,10.71-12.56c1.33-1.82,2.63-3.66,4-5.45,1.19-1.57,2.49-3.06,3.66-4.64.8-1.08,1.79-2.13,1.54-3.67l.82-1.41a3.17,3.17,0,0,0,1.33-2.67,19.73,19.73,0,0,0,1.35-2.57c1.6-4.49,3.13-9,4.69-13.51.11-.57.23-1.15.35-1.73h0l.57-1.78c.27-1,.55-2,.82-3,.13-.56.25-1.13.37-1.69l.28-.58.24-.55c.14-.65.27-1.3.41-1.94.42-2.38.83-4.76,1.25-7.14.24-1.36.47-2.72.71-4.08,0-.42,0-.83,0-1.24l1-4.13c.2-1.77.41-3.55.61-5.33l.27-3c0-.39,0-.78,0-1.16.5-.42.48-.81,0-1.19.85-1.93.57-3.94.43-5.94l-.14-10.13c0-.56,0-1.11,0-1.66s0-.89,0-1.33.08-.72.11-1.08c-.08-2.41-.17-4.83-.26-7.24.06-.54.12-1.08.17-1.62a21.27,21.27,0,0,0-.26-7.79,9.77,9.77,0,0,1-.06-2.3l-.57-2.45-.14-1.2c.35-2.67-.5-5.16-1.15-7.67,0-.2,0-.4,0-.6-.25-1.21-.49-2.42-.73-3.63-.15-.76-.29-1.53-.43-2.29l-.42-1.24c-.06-.37-.13-.75-.19-1.13l-1.72-6.56c-.14-.41-.28-.81-.43-1.22l-1.14-4.23-.75-1.71c-.21-.78-.43-1.55-.65-2.32-.22-.59-.45-1.17-.67-1.76-.44-1.19-.87-2.38-1.3-3.58l-.7-1.39-.62-1.65-2-4.72-.6-1.17-.85-1.16c.09-2.3-1.8-3.68-2.56-5.58l-.62-.93-4.56-7.9c-1.27-2-2.4-4.09-3.83-5.95-2-2.57-3.3-5.65-6-7.67-1.1-1.47-2.1-3-3.31-4.39-1.53-1.74-3.22-3.34-4.83-5l-4.23-4.26c-.4-.84-.79-1.69-1.95-1.59l-1.07-.66a1.37,1.37,0,0,0-1.15-1.4l-1.89-1.56-1-.88a16.91,16.91,0,0,0-1.92-2.2c-1.8-1.5-3.66-2.95-5.58-4.3a22.62,22.62,0,0,0-3.1-1.59.9.9,0,0,0-.24-.5l-2.44-1.7c-.12-.15-.2-.36-.36-.46q-5.8-3.64-11.65-7.28a3.74,3.74,0,0,0-.84-.26c-2-1.26-4-2.65-6.42-3-.36-.44-.64-1.1-1.11-1.29-2.66-1.11-5.38-2.1-8.07-3.14-.28-.25-.51-.61-.84-.75a155.67,155.67,0,0,0-21.56-7.87c-1.4-.39-2.83-.65-4.24-1-2-.59-4.06-1.24-6.12-1.74-1.3-.31-2.66-.41-4-.6-1.85-1-3.89-.7-5.87-.78l-1.15-.49c-.87-1-2-.48-3-.53l-3.63-.55a16.46,16.46,0,0,0-2.82-.53c-1.84,0-3.78-.85-5.51.45-.11.42-.22.83-.32,1.25-.08,1.27-.16,2.54-.23,3.81a3.12,3.12,0,0,0,1.7,3.13c1.78,1,3.42,2.29,5.22,3.27,1.34.72,2.54,1.93,4.27,1.69l1.95,1.58,1.11.32,5.15,2.29,2,.38,9.29,1.91,1.72.78,2.54,2.85.81,1.62c-.07,1.57-.13,3.15-.19,4.72l-1.77,1.19c-.58.6-1.16,1.19-1.73,1.79l-5.82,1.83c-.63.2-1.28.36-1.92.54l-2.92.07-8.88-1.08-7.59-1.46-7.94-2.7-3.46-1.44a5.64,5.64,0,0,0-.88-.75c-2.54-1.43-5.11-2.82-7.65-4.25-2.29-1.27-4.56-2.58-6.84-3.88a1,1,0,0,0-.4-.18l-9-7c-1.41-1.15-2.8-2.31-4.24-3.43a10.49,10.49,0,0,0-1.48-.8l-5-4.53-8.38-7.7-.6-.57L977,411.71l-3-2.35-.63-.59v0l-6-4.7a16.21,16.21,0,0,0-1.88-1.83c-4.12-2.93-8.28-5.81-12.42-8.7l-1.11-.36a6.47,6.47,0,0,0-1.18-1.26q-4.7-2.94-9.47-5.78a19.75,19.75,0,0,0-2.4-1h0l-1.2-.64-4.56-2.53a23.8,23.8,0,0,0-6.79-3.27c-.35-.13-.72-.23-1.06-.39-2.52-1.24-5-2.65-7.8-3.16-2.69-1.87-5.88-2.49-8.91-3.51l-5.14-1.46a74.39,74.39,0,0,0-15-3.34l-3.58-.51-2.34-.1-3.78-.12L878,366l-2.52-.18c-2.8-.81-5.63-.14-8.44-.13a109.28,109.28,0,0,0-19.39,2.76c-2.06.51-4.09,1.16-6.13,1.74l0,0-1.41.49-1.49.27c-2.14.62-4.31,1.17-6.42,1.9a23.7,23.7,0,0,0-3.08,1.6,2.62,2.62,0,0,0-2.45,1.1h0A8.72,8.72,0,0,0,822,377.7l-2.29.91a41.57,41.57,0,0,0-10.13,5.69l-1.3.73-1,.93a4.63,4.63,0,0,0-3.15,2,7.18,7.18,0,0,0-4,3.09L797,393.33c-1.5,1-3.27,1.75-4.09,3.56l-.61.59-3.51,3L787,402.31l-8.91,9.47L775,415.89c-.56.6-1.12,1.19-1.69,1.78l-1.19,1.78c-.29.77-.57,1.54-.85,2.32-2.16.31-2.59,2.15-3.32,3.73L765,430,760.43,438c-.93,1.12-1.95,2.19-1.9,3.8a3.64,3.64,0,0,0-1.69,3.29c-1.39.72-1.6,2.15-2,3.44l-1.26,3.08-.43,1.12h0l-.53.66-2.43,5.34-.59,1.74L748,464c-.07.36-.14.72-.2,1.08a9.12,9.12,0,0,0-2.24,6.11,6.59,6.59,0,0,0-1.88,4.14c-.62,2-1.23,3.95-1.84,5.93l-1.59,4.81-1.83,6.44-1.08,3.69-.37,2.08c-.16.85-.33,1.69-.49,2.53L736,502l-.5,1.81c-.13.77-.26,1.54-.38,2.31l-1,4.77a1.21,1.21,0,0,0-.19.55c-.27,1.19-.55,2.38-.82,3.57l-.24,2.33a14.71,14.71,0,0,0-.4,1.55c-.18,1.1-.31,2.21-.46,3.32l-.16,2.31a18.27,18.27,0,0,0-1.19,7.17l.53,1.77-.6.58-.42,1.14c-.09,2.1-1.2,4.14-.37,6.3l-.42,3.24c-.8,1.93-.57,3.93-.45,5.92l-.06.59c0,1,0,2,0,3l.06,1.14c-.17,1.26-.41,2.5-.48,3.76-.08,1.65,0,3.31,0,5,0,.88,0,1.76.08,2.64s0,1.93,0,2.9l-.27,1.75-.28,1.75-.27,4.8,0,4.78,0,1.71.06,1.84c0,1,0,2,0,3,0,.2,0,.39,0,.59-.44,2.11-.89,4.23-1.33,6.35-.35.65-.7,1.31-1.06,2l-1.2,1-2.34.06-2.88-1.83-.52-.47c-.54-.68-1.07-1.37-1.63-2a19.14,19.14,0,0,1-4.51-9c-.23-1.32-.67-2.6-1-3.9-.56-3.67-1.11-7.34-1.71-11-.17-1-.51-2.08-.78-3.11-.27-2-.54-3.95-.82-5.93l-.36-2.41c.07-.68.36-1.43-.5-1.86.36-.79.8-1.59-.17-2.28l-.39-6.14a.45.45,0,0,0-.13-.41l-.07-.6a19.79,19.79,0,0,0-.49-6.55,1.28,1.28,0,0,0-.1-.57c0-1.58-.06-3.16-.1-4.74,0-.6-.07-1.2-.11-1.8s.09-1.16.13-1.74l0-1.83-.06-1.08-.44-3.08.11-3c.07-1.46.17-2.93.2-4.4,0-.95,0-1.9,0-2.85.06-.72.11-1.44.16-2.16s0-1.24,0-1.86l.06-1.15c0-.8,0-1.6,0-2.4l0-2.87.12-1.24a11.9,11.9,0,0,0,.51-2c.15-2,.22-3.93.32-5.89,0-.58.11-1.16.16-1.74,0-.35.08-.7.13-1l.45-3.67.18-2.88c.23-1.58.46-3.16.68-4.74q.52-2.65,1-5.33c0-.61.08-1.21.11-1.82s.11-1.33.17-2a5.54,5.54,0,0,0,1-2.55c.08-.68,0-1,.11-1.9s.39-1.15.52-1.85c.19-1,.37-2,.56-3l1-4.22,1.41-5.27c1-.82.39-2,.61-2.94,1.46-1.48,1.41-3.49,1.86-5.32h-.07l.48-1.18c.06-.19.12-.38.19-.58l.09-.95.87-1.51.12-1.17c1-2.5,2.07-5,3.07-7.5,1.37-3.43,2.7-6.87,4-10.31l.69-1.15,1.58-3.05.7-1.71,4.89-8.81.52-.63c.32-.62.64-1.24.95-1.86l1.43-1.7c1.25-1.68,2.53-3.34,3.75-5,.77-1.07,1.45-2.2,2.16-3.31a27.79,27.79,0,0,0,6-7.08l.56-.58,2.31-2.44,3.66-4.05,2.43-2.37,3.45-3,8.18-6.77,6.12-5.07,1.67-1.31c2.66-.62,4.42-2.7,6.66-4l1-.76,6.74-3.94,10.46-5,4.93-2.11,14.06-4.42,13.88-3.21,2.64-.65v0c1-.06,2-.06,2.93-.17,3.61-.4,7.21-.83,10.82-1.25a34.59,34.59,0,0,0,10.1-.64l3,.06,7.17-.15,2.3,0c3.29.25,6.58.54,9.87.73a62.12,62.12,0,0,1,11.29,1.39,24.32,24.32,0,0,0,3.2.39c.58.1,1.17.17,1.74.3l8.89,2,5.3,2.12,1.81.66,4.25,2,4.06,1.68c.07.18.1.45.23.51,2.65,1.39,5.32,2.74,8,4.1,2.21,1.17,4.05,3,6.63,3.47,1.12,1.68,2.89,2.3,4.68,2.9l4.29,2.9.59.47,1.69.95,2.44,1.52,1.6.8,3.09,2.84,5.78,3.65,1.37,1.08,1.67,1.3,2.48,1.73c1.44,2,3.66,3,5.71,4.25.86,1,1.7,2.09,3.19,2.21l.48.62,1.36,1.1c1,1,2,2,3.17,2.88,2.42,1.9,4.91,3.72,7.37,5.57l6.58,5c.62,1.72,2.14,2.45,3.57,3.27l1.07.67,1.88,1.7h0l2.41,1.73a2.66,2.66,0,0,0,.53.21l1.29,1.5c1.08.85,2.12,1.74,3.25,2.51s1.56,2.25,3.16,2.12v-4.56l.4-1.26v-4c.57-3.59.17-7.23.72-10.87.53-3.46.06-7.07,0-10.61,0-.57,0-1.13.05-1.7s-.07-1.26-.1-1.89c0-.36.08-.73.13-1.09a49.06,49.06,0,0,0,.43-5.26c-.06-3-.34-6-.53-9,0-.36,0-.72,0-1.08s-.23-.84-.34-1.25l-.09-1.8c-.12-1-.24-2-.35-3a1.23,1.23,0,0,0-.26-1.74,24,24,0,0,0-1.46-8.35c-.3-1.37-.61-2.74-.92-4.11-.75-2.21-1-4.61-2.52-6.51l-.57-1.72-1.08-1.84a9.58,9.58,0,0,0-3.52-4.93l-1.87-2.13-1.62-.77c-.4-.52-.7-1.29-1.23-1.52a55.63,55.63,0,0,0-6.27-2.36,6,6,0,0,0-2.89.1A32.68,32.68,0,0,0,985,320.3c-2.51.95-4.07,2.64-4,5.51l.46,5a7.85,7.85,0,0,1-4.84-.07c-1.5-.48-3-.9-4.52-1.35a.72.72,0,0,0-.53-.14v0l-1.21-.6h0c-.51-.91-1-.85-1.54,0l-.57-.09A2,2,0,0,0,967,326.5a18,18,0,0,1-6.16-6l0-.59c-.36-.6-.73-1.2-1.1-1.8-.27-2.55-1.07-5.05-.69-7.66.83-2.54,1.65-5.07,2.48-7.6l1.17-1.33.7-1.06,1.73-1.83.75-1.1,3.46-3,1-.19,3-1.22Zm131.2,371.05-.62.59-2.63,3.57-2.26,3.45-1.64,2.44c-1,1.72-2.13,3.4-3.07,5.17-.77,1.44-1.35,3-2,4.47l-.73,1.76c-.18.6-.35,1.2-.53,1.79-.38,1-.77,1.94-1.16,2.91l-.66,3c-.49,1.89,0,3.73,0,6.11a140.3,140.3,0,0,0,17.17-15.65l1.71-2.3,4-4.19.9-1.68v0l1.7-1.73.7-.78,3.37-4.76,3.72-5.19.57-1.07,3.51-5,3.65-5.85c.94-1.36,1.91-2.71,2.82-4.09a.93.93,0,0,0-.43-1.46L1133,645a6.62,6.62,0,0,0-2-1,11.15,11.15,0,0,0-7.25,1.94,56.88,56.88,0,0,0-12.33,10.84l-2.24,2.52-1.9,2.35-1.15,1.76,0,0-.62.61Zm-55.89-8.88a6.77,6.77,0,0,0-3.26,3c3.41,3.19,6.17,3.55,9.36,1.34,3.19-2.48,5.7-5.39,6.11-9.64a10.28,10.28,0,0,0,.39-6.22,33.49,33.49,0,0,0-7.86,6.68c-.27.09-.63.1-.79.28C1052.33,652,1051,653.55,1049.72,655.06Zm-17.85,4.46-.13-.11,0,.18Z" transform="translate(-702.35 -241.82)"/></svg>