<svg version="1.1" id="Layer_1" xmlns="http://www.w3.org/2000/svg" xmlns:xlink="http://www.w3.org/1999/xlink" x="0px" y="0px"
	 fill="#fff" viewBox="0 0 389.03 311.23" style="enable-background:new 0 0 389.03 311.23;" xml:space="preserve">
<g>
	<g>
		<path d="M195.68,20.62c-56.36,0-102.05,45.69-102.05,102.05s45.69,102.05,102.05,102.05s102.05-45.69,102.05-102.05
			S252.04,20.62,195.68,20.62z M176.48,60.03c0.66-0.63,2.08-0.91,3.15-0.17c1.18,0.83,1.33,2.51,0.66,3.55
			c-0.55,0.86-1.52,1.05-1.61,1.06c-0.98,0.17-1.75-0.35-1.98-0.51c-0.18-0.12-0.32-0.25-0.41-0.34c-0.12-0.15-0.32-0.34-0.6-0.42
			c-0.41-0.13-0.79,0.03-0.92,0.08c-0.68,0.27-2.85,0.98-5.83,1.97c-0.16,0.01-0.3-0.05-0.37-0.16c-0.07-0.12-0.04-0.25-0.03-0.31
			c0.07-0.29,0.38-0.41,0.42-0.43c3.31-0.99,5.7-1.71,6.03-1.81c0.07-0.02,0.26-0.08,0.4-0.25c0.1-0.13,0.12-0.26,0.17-0.44
			c0.06-0.24,0.13-0.48,0.21-0.71C175.76,61.15,175.97,60.52,176.48,60.03z M170.57,52.46c-0.07-0.17-0.16-0.44-0.16-0.78
			c0,0-0.01-0.49,0.21-0.97c0.36-0.79,1.65-1.71,3.04-1.33c1.15,0.31,1.95,1.4,1.94,2.54c-0.01,1.28-1.05,2.03-1.2,2.14
			c-0.25,0.18-0.83,0.6-1.57,0.49c-0.39-0.05-0.67-0.23-0.84-0.35c-0.08-0.04-0.21-0.09-0.37-0.1c-0.41-0.03-0.74,0.19-0.91,0.31
			c-0.49,0.35-2.58,1.98-5.39,4.27c-0.24,0.09-0.49,0.06-0.64-0.08c-0.03-0.03-0.14-0.13-0.14-0.29c0-0.22,0.21-0.34,0.22-0.35
			c2.7-2.13,4.63-3.64,5.34-4.11c0.16-0.11,0.63-0.41,0.65-0.85C170.77,52.77,170.65,52.57,170.57,52.46z M158.37,52.61
			c2.11-2.59,3.64-4.48,3.98-4.89c0.07-0.08,0.22-0.27,0.23-0.53c0-0.16-0.06-0.23-0.2-0.59c0,0-0.08-0.2-0.23-0.7
			c0,0-0.19-0.64-0.04-1.33c0.18-0.89,1.2-1.93,2.5-1.92c1.36,0.01,2.54,1.17,2.55,2.55c0.01,1.64-1.66,2.42-2.01,2.51
			c-0.33,0.09-0.64,0.07-0.64,0.07c-0.17-0.01-0.31-0.04-0.41-0.07c-0.12-0.01-0.32-0.01-0.55,0.06c-0.36,0.11-0.59,0.34-0.73,0.5
			c-0.39,0.44-1.85,2.3-3.78,4.89c-0.2,0.14-0.44,0.17-0.61,0.07c-0.03-0.02-0.16-0.09-0.19-0.24
			C158.19,52.78,158.36,52.62,158.37,52.61z M131.71,193.41c-0.26,0.33-4.73-2.31-9-6.33c-3.57-3.36-5.8-6.55-6.91-8.17
			c-2.87-4.16-5.09-8.65-6.09-10.69c-0.14-0.28-0.25-0.51-0.34-0.69c-3.35-6.9-6.13-12.65-8.31-20.82
			c-3.68-13.82-3.11-25.23-2.82-30.29c0.06-1.09,0.3-4.89,1.05-9.87c0.91-6.06,2.04-13.55,5.68-21.88
			c1.98-4.54,4.65-10.64,10.7-16.71c1.94-1.95,8.27-7.93,18.14-11.19c1.55-0.51,5.96-1.87,11.78-2.15c2.97-0.14,5.1-0.23,7.81,0.57
			c1.26,0.37,5.25,1.61,8.45,5.44c3.29,3.93,3.75,8.24,3.96,10.13c0.26,2.39,0.42,3.89-0.1,5.8c-0.33,1.21-0.84,2.2-0.8,3.88
			c0.01,0.6,0.09,0.86,0.53,2.82c0.37,1.63,0.71,3.26,1.07,4.89c1.9,8.53,0.64,3.12,0.9,4.22c0.45,1.97,0.64,2.55,0.42,2.67
			c-0.33,0.19-1.16-1.02-4.13-4.01c-1.51-1.52-1.33-1.24-1.84-1.83c-1.03-1.16-1.28-1.74-1.94-1.87c-0.72-0.14-1.26,0.4-2.1,0.96
			c-1.53,1.03-2.91,1.36-4.94,1.85c-1.22,0.29-2.94,0.69-5.15,0.41c-1.79-0.23-3.09-0.81-4.04-1.23c-1.52-0.68-2.41-1.07-3.24-2
			c-0.79-0.88-0.73-1.33-1.73-2.43c-0.33-0.36-1.08-1.18-2.02-1.68c-1.99-1.06-4.25-0.37-5.66,0.06c-2.53,0.77-4.24,2.11-5.14,2.86
			c-4.88,4.08-7.6,8.95-8.3,10.23c-2.51,4.63-3.53,8.42-4.77,13.19c-1.98,7.61-2.48,13.6-2.6,15.21
			c-0.56,7.44,0.07,12.92,0.76,19.06c0.43,3.81,1.12,9.63,3.07,17.09c1.83,6.99,3.85,11.87,4.49,13.37
			c1.97,4.65,3.28,7.74,5.98,11.32C128.31,190.64,131.96,193.11,131.71,193.41z M287.91,158.05c0,0-2.31,5.78-5.06,10.92
			c-11.32,21.14-32.07,34.52-32.07,34.52c-4.56,2.94-9.7,6.25-17.44,8.79c-14.98,4.92-28.16,3.16-36.22,2.08
			c-4.77-0.64-9.15-1.25-14.64-3.37c-7.94-3.06-12.46-7.04-13.12-6.26c-0.65,0.78,3.05,5.57,7.77,9.41
			c6.89,5.61,13.23,6.99,13.02,7.67c-0.23,0.75-8.13-0.24-16.68-3.66c-6.36-2.55-10.85-5.55-14.76-8.19
			c-1.86-1.26-7.32-5.04-14.4-11.65c-8.37-7.82-12.55-11.73-16.16-17.91c-2.47-4.24-8.26-14.48-6.62-27.39
			c0.52-4.1,1.33-10.47,6.41-15.77c6.85-7.15,16.5-7.14,19.08-7.03c12.86,0.53,21.86,10.75,24,13.18c2.93,3.33,2.85,4.41,5.61,6.54
			c8.1,6.25,18.48,4.45,19.66,4.23c7.45-1.41,12.13-5.73,14.21-7.71c6.6-6.27,8.51-13.61,9.99-19.29c1.34-5.17,2.46-9.46,1.04-14.19
			c-1.72-5.73-2.93-8.11-2.93-8.11c-1.03-2.01-1.86-3.11-1.91-5.05c-0.01-0.32-0.05-3.87,2.28-5.28c1.28-0.78,2.83-0.62,4.89-0.01
			c6.33,1.85,10.57,5.82,11.02,6.26c5.27,5.04,7.61,10.91,8.61,14.16c1.64,5.35,1.21,8.77,2.01,8.83c1.18,0.08,3.09-7.31,3.36-14.67
			c0.08-2.16-0.1-4.66-0.47-9.67c-0.47-6.45-0.73-9.76-1.65-14.04c-0.66-3.06-1.3-5.96-2.96-9.57c-1.8-3.91-3.83-6.55-4.41-7.29
			c-2.13-2.7-2.74-2.64-4.15-4.53c-1.93-2.58-4.86-8.11-3.11-11.42c2.24-4.24,11.46-3.45,16.39-2.33
			c3.04,0.69,9.39,2.64,18.51,11.62c3.23,3.18,16.35,16.65,22.77,39.84c0.5,1.81,2.13,7.91,3,16.1c0.49,4.59,1.96,19.46-2.2,32.8
			C290.25,151.68,289.32,154.53,287.91,158.05z"/>
	</g>
	<g>
		<path d="M54.78,247.6l0.31-0.04h-0.47H54.4h0.04H54.2c-1.09,0-1.96,0.45-2.62,1.34s-0.99,2.08-0.99,3.56
			c0,1.25,0.47,2.42,1.42,3.54c0.94,1.12,2.34,2.01,4.17,2.68c2.33,0.83,4.08,2.07,5.26,3.73c1.18,1.66,1.77,3.49,1.77,5.48
			c0,1.25-0.21,2.38-0.62,3.4c-0.41,1.02-1,1.91-1.75,2.64c-0.75,0.74-1.64,1.31-2.68,1.71c-1.04,0.4-2.19,0.6-3.46,0.6
			c-0.83,0-1.66-0.15-2.49-0.45c-0.83-0.3-1.61-0.71-2.35-1.24c-0.74-0.53-1.42-1.17-2.04-1.9c-0.62-0.74-1.14-1.56-1.55-2.47
			c0.13-0.05,0.26-0.12,0.39-0.19c0.13-0.05,0.28-0.12,0.47-0.19c0.18-0.08,0.38-0.17,0.58-0.27l0.12,0.23l-0.12-0.23
			c0.16,0.36,0.39,0.76,0.72,1.2c0.32,0.44,0.69,0.87,1.11,1.3c0.41,0.43,0.85,0.82,1.3,1.18c0.45,0.36,0.89,0.65,1.3,0.85h-0.04
			c0.85,0.39,1.72,0.58,2.6,0.58c1.35,0,2.43-0.49,3.26-1.46c0.83-0.97,1.24-2.26,1.24-3.86c0-0.98-0.5-1.95-1.51-2.91
			c-1.01-0.96-2.51-1.8-4.5-2.52c-2.12-0.78-3.73-2.03-4.83-3.75c-1.1-1.72-1.65-3.64-1.65-5.77c0-1.19,0.18-2.28,0.54-3.26
			c0.36-0.98,0.87-1.83,1.53-2.54c0.66-0.71,1.45-1.26,2.37-1.65c0.92-0.39,1.94-0.58,3.05-0.58c0.8,0,1.59,0.11,2.37,0.32
			c0.78,0.21,1.5,0.51,2.16,0.89c0.66,0.38,1.25,0.85,1.77,1.41c0.52,0.56,0.93,1.17,1.24,1.84c-0.13,0.05-0.26,0.12-0.39,0.19
			c-0.13,0.05-0.29,0.12-0.47,0.19c-0.18,0.08-0.38,0.17-0.58,0.27c-0.18-0.39-0.47-0.8-0.85-1.22c-0.39-0.43-0.83-0.83-1.32-1.2
			c-0.49-0.38-1.02-0.69-1.59-0.95C55.96,247.85,55.38,247.68,54.78,247.6z M49.74,274.28h-0.08
			C49.71,274.33,49.74,274.33,49.74,274.28z M54.94,247.57l-0.04-0.04h-0.23h-0.12L54.94,247.57z"/>
		<path d="M66.49,247.91l-0.04,0.04c-0.1-0.26-0.19-0.47-0.27-0.62c-0.03-0.08-0.05-0.13-0.08-0.16h-0.04l-0.04-0.04l-0.04-0.16
			v-0.19v-0.04h2.91h2.83h0.04l0.04,0.04c0,0.05,0,0.1,0,0.16l7.25,17.28c0.66,1.57,2.91,1.5,3.47-0.11l5.94-17.05v-0.12
			c0.03-0.05,0.04-0.1,0.04-0.16v-0.04h0.04h0.97h1.05v0.04v0.16c-0.03,0.05-0.04,0.1-0.04,0.16l-0.04,0.04h-0.04l-11.11,29.12
			h-1.01l-3.15-7.53L66.49,247.91z"/>
		<path d="M110.15,275.87h-8.78h-2.52h-2.45h-0.04v-0.19v-0.19c0-0.1,0.01-0.26,0.04-0.47c0-0.21,0-0.47,0-0.8c0-0.32,0-0.74,0-1.26
			v-23.3c0-0.52,0-0.95,0-1.28c0-0.34,0-0.6,0-0.78c-0.03-0.21-0.04-0.36-0.04-0.47v-0.19v-0.19h0.04h2.45h2.52h7.92h4.23
			c0,0.08,0.01,0.17,0.02,0.27c0.01,0.1,0.02,0.19,0.02,0.27c0,0.08,0.01,0.17,0.02,0.27c0.01,0.1,0.02,0.21,0.02,0.31h-0.19h-0.16
			v-0.04c-0.05,0-0.22-0.01-0.5-0.04c-0.26,0-0.65,0-1.16,0c-0.52,0-1.27,0-2.25,0h-6.1c-1.03,0-1.86,0.83-1.86,1.86v0.01v6.72
			c0,1.03,0.83,1.86,1.86,1.86h3.5c0.8,0,1.46,0,1.96,0s0.9-0.01,1.18-0.04c0.34,0,0.58,0,0.74,0v-0.04h0.16h0.19v0.08v0.58v0.58
			v0.08h-0.19h-0.16c-0.21-0.03-0.45-0.04-0.74-0.06c-0.29-0.01-0.68-0.02-1.18-0.02s-1.16,0-1.96,0h-3.5
			c-1.03,0-1.86,0.83-1.86,1.86v11.69v0.74c0,0.34,0.12,0.61,0.35,0.82c0.23,0.21,0.84,0.31,1.82,0.31h6.72c0.83,0,1.49,0,2,0
			s0.9-0.01,1.18-0.04c0.34,0,0.58,0,0.74,0v-0.04h0.16h0.19c-0.03,0.1-0.04,0.21-0.04,0.31s-0.01,0.19-0.04,0.27
			c-0.03,0.08-0.04,0.17-0.04,0.27s-0.01,0.19-0.04,0.27H110.15z"/>
		<path d="M143.49,247.95l0.04-0.08v0.12h-0.19h-0.19c-0.21-0.03-0.45-0.04-0.74-0.04c-0.29,0-0.68,0-1.18,0s-1.16,0-1.96,0h-3.73
			c-1.03,0-1.86,0.83-1.86,1.86v23.3c0,0.49,0,0.89,0,1.18s0.01,0.54,0.04,0.72c0,0.18,0,0.32,0,0.43h0.04v0.19v0.19h-2.56h-2.52
			v-0.19v-0.19c0.03,0,0.04-0.14,0.04-0.43c0-0.28,0-0.92,0-1.9v-23.3c0-1.03-0.83-1.86-1.86-1.86h-3.69c-0.8,0-1.46,0-1.96,0
			c-0.5,0-0.9,0-1.18,0c-0.29,0-0.54,0.01-0.78,0.04h-0.19h-0.16v-1.24h0.47h0.19h0.19c0.21,0.03,0.45,0.04,0.72,0.04
			c0.27,0,0.66,0,1.16,0s1.16,0,1.96,0h5.13h4.97h5.13c0.83,0,1.49,0,2,0s0.89,0,1.17,0c0.27,0,0.51-0.01,0.72-0.04h0.19h0.16h0.47
			V247.95z"/>
		<path d="M153.8,273.15c0,0.98,0,1.62,0,1.9c0,0.29,0.01,0.43,0.04,0.43v0.19v0.19h-2.52h-2.56v-0.19v-0.19h0.04
			c0-0.1,0.01-0.25,0.04-0.43c0-0.18,0-0.42,0-0.72c0-0.3,0-0.69,0-1.18v-23.69c0-0.49,0-0.89,0-1.18c0-0.3,0-0.54,0-0.72
			c-0.03-0.18-0.04-0.32-0.04-0.43h-0.04v-0.19v-0.19h2.56h2.52v0.19v0.19c-0.03,0-0.04,0.14-0.04,0.43s0,0.92,0,1.9V273.15z"/>
		<path d="M161.99,246.75c0.6,0,1.16,0.29,1.51,0.78l13.19,18.41l0.97,1.36l-0.08-16.27c0-0.8,0-1.46,0-1.96s0-0.9,0-1.18
			s-0.01-0.53-0.04-0.74v-0.19v-0.19h0.04h0.74h0.74v0.19v0.19l-0.04,3.34v0.54l-0.31,24.85h-1.01l-5.09-7.11l-7.38-10.25
			c-1.06-1.47-3.38-0.71-3.37,1.1l0.11,15.87h0.04v0.19v0.19h-0.04h-0.78h-0.74h-0.04v-0.19v-0.19h0.04v-5.05l0.04-17.88
			c0-0.39-0.12-0.77-0.35-1.09l-2.13-2.97c-0.21-0.29-0.38-0.52-0.5-0.7c-0.13-0.18-0.23-0.31-0.31-0.39
			c-0.1-0.13-0.17-0.22-0.19-0.27l-0.04-0.04l-0.08-0.16c-0.03-0.05-0.05-0.1-0.08-0.16l-0.04-0.04h3.07h0.7h1.24H161.99z"/>
		<path d="M184.65,275.87h-0.76v-0.04c0-0.05,0.01-0.1,0.04-0.16v-0.19h0.04l0.04-0.04c0-0.03,0.01-0.06,0.04-0.12l1.32-4.27
			c0.05-0.21,0.11-0.43,0.18-0.66c0.06-0.23,0.14-0.48,0.21-0.74h0.04l6.33-20.93l-0.12-0.39c0.7-0.13,1.39-0.41,2.08-0.83
			c0.69-0.43,1.24-0.94,1.65-1.53h0.54l0.74,2.37l8.35,27.14h0.04v0.04c0,0.05,0.01,0.1,0.04,0.16c0.03,0.05,0.04,0.1,0.04,0.16
			v0.04h-2.64h-2.6h-0.04v-0.04c0-0.05-0.01-0.1-0.04-0.16c-0.03-0.05-0.04-0.1-0.04-0.16v-0.04l-1.4-4.66l-1.62-5.39
			c-0.24-0.79-0.96-1.32-1.78-1.32h-5.22c-0.83,0-1.56,0.55-1.79,1.35l-1.21,4.21c-0.05,0.16-0.09,0.31-0.12,0.47
			c-0.03,0.16-0.06,0.3-0.12,0.43l-1.4,4.93v0.19c-0.03,0.05-0.04,0.1-0.04,0.16v0.04h-0.08H184.65z M191.56,262.86h2.27
			c1.24,0,2.14-1.2,1.78-2.39l-1.16-3.88c-0.53-1.78-3.06-1.77-3.57,0.02l-1.11,3.88C189.43,261.68,190.32,262.86,191.56,262.86z"/>
		<path d="M242.68,275.87h-0.04c-1.79,0-3.19-0.02-4.21-0.06c-1.02-0.04-1.82-0.15-2.41-0.33c-0.58-0.18-1.04-0.45-1.36-0.82
			c-0.32-0.36-0.68-0.87-1.07-1.51c-0.72-1.24-1.41-2.43-2.06-3.55c-0.65-1.13-1.22-2.15-1.73-3.09c-0.51-0.93-0.94-1.75-1.3-2.47
			c-0.12-0.23-0.23-0.45-0.33-0.66c-0.31-0.64-0.96-1.03-1.66-1.03h-0.46c-1.03,0-1.86,0.83-1.86,1.86v8.74c0,1.06,0,1.75,0,2.06
			s0.01,0.47,0.04,0.47v0.19v0.19h-2.52h-2.52v-0.19v-0.19c0-0.1,0.01-0.26,0.04-0.47c0-0.21,0-0.47,0-0.8c0-0.32,0-0.74,0-1.26
			v-23.3c0-0.52,0-0.95,0-1.28c0-0.34,0-0.6,0-0.78c-0.03-0.21-0.04-0.36-0.04-0.47v-0.19v-0.19h2.49h2.52h5.28
			c1.47,0,2.82,0.2,4.04,0.6s2.26,0.96,3.13,1.69c0.87,0.72,1.54,1.59,2.02,2.6c0.48,1.01,0.72,2.13,0.72,3.38
			c0,1.86-0.6,3.37-1.79,4.5c-0.74,0.71-1.65,1.28-2.73,1.72c-1.06,0.43-1.5,1.69-0.92,2.67c0.39,0.66,0.84,1.42,1.36,2.28
			c1.16,1.97,2.55,4.29,4.15,6.95c0.31,0.54,0.57,0.96,0.78,1.26c0.21,0.3,0.41,0.52,0.62,0.66c0.21,0.14,0.45,0.23,0.72,0.27
			c0.27,0.04,0.64,0.06,1.11,0.06V275.87z M226.05,247.8c-1.03,0-1.86,0.83-1.86,1.86v0.04v9.56c0,1.03,0.83,1.86,1.86,1.86h1.91
			c1.79,0,3.22-0.57,4.29-1.7s1.61-2.92,1.61-5.34c0-1.86-0.54-3.37-1.61-4.53c-1.07-1.16-2.5-1.74-4.29-1.74H226.05z"/>
		<path d="M245.47,275.87h-0.76v-0.04c0-0.05,0.01-0.1,0.04-0.16v-0.19h0.04l0.04-0.04c0-0.03,0.01-0.06,0.04-0.12l1.32-4.27
			c0.05-0.21,0.11-0.43,0.18-0.66c0.06-0.23,0.14-0.48,0.21-0.74h0.04l6.33-20.93l-0.12-0.39c0.7-0.13,1.39-0.41,2.08-0.83
			c0.69-0.43,1.24-0.94,1.65-1.53h0.54l0.74,2.37l8.35,27.14h0.04v0.04c0,0.05,0.01,0.1,0.04,0.16c0.03,0.05,0.04,0.1,0.04,0.16
			v0.04h-2.64h-2.6h-0.04v-0.04c0-0.05-0.01-0.1-0.04-0.16c-0.03-0.05-0.04-0.1-0.04-0.16v-0.04l-1.4-4.66l-1.62-5.39
			c-0.24-0.79-0.96-1.32-1.78-1.32h-5.22c-0.83,0-1.56,0.55-1.79,1.35l-1.21,4.21c-0.05,0.16-0.09,0.31-0.12,0.47
			c-0.03,0.16-0.06,0.3-0.12,0.43l-1.4,4.93v0.19c-0.03,0.05-0.04,0.1-0.04,0.16v0.04h-0.08H245.47z M252.38,262.86h2.26
			c1.24,0,2.14-1.2,1.78-2.39l-1.16-3.88c-0.53-1.78-3.06-1.77-3.57,0.02l-1.11,3.88C250.26,261.68,251.15,262.86,252.38,262.86z"/>
		<path d="M272.51,246.75c0.6,0,1.16,0.29,1.51,0.78l13.19,18.41l0.97,1.36l-0.08-16.27c0-0.8,0-1.46,0-1.96s0-0.9,0-1.18
			s-0.01-0.53-0.04-0.74v-0.19v-0.19h0.04h0.74h0.74v0.19v0.19l-0.04,3.34v0.54l-0.31,24.85h-1.01l-5.09-7.11l-7.39-10.25
			c-1.06-1.47-3.38-0.71-3.37,1.1l0.11,15.87h0.04v0.19v0.19h-0.04h-0.78h-0.74h-0.04v-0.19v-0.19h0.04v-5.05l0.04-17.88
			c0-0.39-0.12-0.77-0.35-1.09l-2.13-2.97c-0.21-0.29-0.38-0.52-0.5-0.7c-0.13-0.18-0.23-0.31-0.31-0.39
			c-0.1-0.13-0.17-0.22-0.19-0.27l-0.04-0.04l-0.08-0.16c-0.03-0.05-0.05-0.1-0.08-0.16l-0.04-0.04h3.07h0.7h1.24H272.51z"/>
		<path d="M316.63,274.4h0.19c-0.16,0.1-0.27,0.17-0.35,0.19c-0.93,0.52-1.97,0.93-3.13,1.22c-1.15,0.3-2.46,0.45-3.94,0.45
			c-2.1,0-4.01-0.36-5.75-1.09c-1.73-0.72-3.22-1.74-4.45-3.05c-1.23-1.31-2.19-2.88-2.87-4.72c-0.69-1.84-1.03-3.87-1.03-6.1
			c0-2.23,0.35-4.26,1.05-6.1c0.7-1.84,1.68-3.41,2.95-4.72c1.27-1.31,2.79-2.32,4.56-3.05c1.77-0.72,3.73-1.09,5.88-1.09
			c1.37,0,2.58,0.11,3.61,0.34s1.96,0.56,2.78,0.99s1.55,0.95,2.21,1.54c0.17,0.15,0.34,0.31,0.51,0.48c0.8,0.78,0.76,2.08-0.1,2.79
			l-0.04,0.04l-0.35-0.35c-0.34-0.39-0.73-0.8-1.18-1.22c-0.45-0.43-0.92-0.83-1.4-1.2c-0.48-0.38-0.95-0.71-1.42-1.01
			c-0.41-0.26-0.79-0.47-1.12-0.62c-0.09-0.04-0.17-0.07-0.25-0.1c-0.85-0.28-1.79-0.42-2.82-0.42c-1.4,0-2.68,0.33-3.84,0.99
			c-1.16,0.66-2.17,1.59-3.01,2.8c-0.84,1.21-1.49,2.65-1.94,4.33c-0.45,1.69-0.68,3.55-0.68,5.6c0,2.05,0.22,3.92,0.66,5.62
			c0.44,1.7,1.06,3.15,1.86,4.35c0.8,1.21,1.76,2.15,2.87,2.82c1.11,0.67,2.34,1.01,3.69,1.01c0.83,0,1.62-0.11,2.37-0.33
			c0.75-0.22,1.46-0.52,2.14-0.91c0.67-0.41,1.38-0.95,2.14-1.61c0.75-0.66,1.38-1.29,1.9-1.88l0.23-0.35l0,0
			c0.86,0.71,0.92,2.02,0.11,2.78c-0.06,0.06-0.13,0.12-0.19,0.17C317.92,273.52,317.3,273.98,316.63,274.4z"/>
		<path d="M345.5,273.15c0,0.98,0,1.62,0,1.9c0,0.29,0.01,0.43,0.04,0.43v0.19v0.19h-2.52h-2.56v-0.19v-0.19
			c0.03,0,0.04-0.14,0.04-0.43c0-0.28,0-0.92,0-1.9v-9.63c0-1.03-0.83-1.86-1.86-1.86h-6.14c-1.03,0-1.86,0.83-1.86,1.86v9.63
			c0,0.98,0,1.62,0,1.9c0,0.29,0.01,0.43,0.04,0.43v0.19v0.19h-2.52h-2.56v-0.19v-0.19c0.03,0,0.04-0.14,0.04-0.43
			c0-0.28,0-0.92,0-1.9v-23.69c0-0.98,0-1.62,0-1.9s-0.01-0.43-0.04-0.43v-0.19v-0.19h2.56h2.52v0.19v0.19
			c-0.03,0-0.04,0.14-0.04,0.43s0,0.92,0,1.9v9.01c0,1.03,0.83,1.86,1.86,1.86h6.14c1.03,0,1.86-0.83,1.86-1.86v-9.01
			c0-0.98,0-1.62,0-1.9s-0.01-0.43-0.04-0.43v-0.19v-0.19h2.56h2.52v0.19v0.19c-0.03,0-0.04,0.14-0.04,0.43s0,0.92,0,1.9V273.15z"/>
	</g>
</g>
</svg>
