<svg id="Layer_1" data-name="Layer 1" xmlns="http://www.w3.org/2000/svg" viewBox="0 0 87.06 87.06"><defs><style>.cls-1{fill:#fff;}</style></defs><title>logo-svetina_mini</title><path class="cls-1" d="M75,26.18a43.53,43.53,0,1,0,43.53,43.53A43.53,43.53,0,0,0,75,26.18ZM66.81,43a1.11,1.11,0,0,1,1.34-.07,1.14,1.14,0,0,1,.29,1.51,1,1,0,0,1-.69.45,1.18,1.18,0,0,1-.85-.21l-.17-.15a.6.6,0,0,0-.26-.18.56.56,0,0,0-.39,0c-.29.11-1.21.41-2.49.84a.2.2,0,0,1-.15-.07.23.23,0,0,1,0-.13c0-.13.17-.18.18-.19l2.57-.77a.33.33,0,0,0,.18-.11.48.48,0,0,0,.07-.18,1.58,1.58,0,0,1,.09-.31A1.16,1.16,0,0,1,66.81,43Zm-2.52-3.23a.86.86,0,0,1-.07-.33,1.19,1.19,0,0,1,.09-.42,1.16,1.16,0,0,1,1.3-.56,1.13,1.13,0,0,1,.83,1.08,1.16,1.16,0,0,1-.52.91.87.87,0,0,1-.67.21.76.76,0,0,1-.35-.15.53.53,0,0,0-.16,0,.62.62,0,0,0-.39.13c-.21.15-1.1.85-2.3,1.82a.26.26,0,0,1-.27,0,.15.15,0,0,1-.06-.12.18.18,0,0,1,.09-.15c1.15-.91,2-1.56,2.28-1.76.07,0,.27-.17.28-.36A.44.44,0,0,0,64.29,39.76Zm-5.2.06,1.69-2.08a.38.38,0,0,0,.1-.23c0-.07,0-.1-.08-.25a1.87,1.87,0,0,1-.1-.3,1.29,1.29,0,0,1,0-.56,1.1,1.1,0,0,1,2.16.26A1.22,1.22,0,0,1,62,37.73a.91.91,0,0,1-.28,0,.4.4,0,0,1-.17,0,.72.72,0,0,0-.23,0A.77.77,0,0,0,61,38c-.16.19-.79,1-1.61,2.09a.25.25,0,0,1-.26,0s-.07,0-.08-.1A.19.19,0,0,1,59.09,39.82ZM47.71,99.88c-.11.14-2-1-3.83-2.7a20.2,20.2,0,0,1-3-3.48,36.57,36.57,0,0,1-2.6-4.56c-.06-.12-.11-.22-.14-.3A45.7,45.7,0,0,1,34.64,80,39.84,39.84,0,0,1,33.44,67c0-.46.13-2.08.45-4.21a34.68,34.68,0,0,1,2.42-9.33,21.25,21.25,0,0,1,4.56-7.13,20.07,20.07,0,0,1,7.74-4.77,19.07,19.07,0,0,1,5-.92,9,9,0,0,1,3.34.25,7.26,7.26,0,0,1,3.6,2.32,7.76,7.76,0,0,1,1.69,4.32,6.14,6.14,0,0,1,0,2.47,4.87,4.87,0,0,0-.34,1.66,5.3,5.3,0,0,0,.22,1.2c.16.69.3,1.39.46,2.08.81,3.64.27,1.33.38,1.8.19.84.27,1.09.18,1.14s-.49-.43-1.76-1.71c-.64-.65-.57-.53-.79-.78-.43-.49-.54-.74-.82-.8s-.54.17-.9.41a5.83,5.83,0,0,1-2.11.79,5.63,5.63,0,0,1-2.19.18,5.93,5.93,0,0,1-1.73-.53,3.66,3.66,0,0,1-1.38-.85c-.33-.38-.31-.57-.74-1a3.41,3.41,0,0,0-.86-.71,3.12,3.12,0,0,0-2.41,0,6.16,6.16,0,0,0-2.19,1.22,15.15,15.15,0,0,0-3.54,4.37,22.26,22.26,0,0,0-2,5.62,37.9,37.9,0,0,0-1.11,6.49,39.29,39.29,0,0,0,.33,8.13A47.64,47.64,0,0,0,40.19,86a42.32,42.32,0,0,0,1.91,5.7,20.4,20.4,0,0,0,2.55,4.83C46.26,98.7,47.82,99.75,47.71,99.88ZM114.34,84.8s-1,2.46-2.16,4.66c-4.83,9-13.68,14.72-13.68,14.72a29.6,29.6,0,0,1-7.44,3.75,33.17,33.17,0,0,1-15.45.89,25.61,25.61,0,0,1-6.24-1.44c-3.39-1.3-5.32-3-5.6-2.67s1.3,2.38,3.32,4c2.94,2.4,5.64,3,5.55,3.28s-3.47-.11-7.11-1.57a31.13,31.13,0,0,1-6.3-3.49,51.33,51.33,0,0,1-6.14-5c-3.57-3.33-5.35-5-6.89-7.64a18.44,18.44,0,0,1-2.83-11.68,11,11,0,0,1,2.74-6.73,10.87,10.87,0,0,1,8.13-3c5.49.23,9.33,4.59,10.24,5.63,1.25,1.42,1.22,1.88,2.39,2.79,3.46,2.66,7.89,1.89,8.39,1.8a11.83,11.83,0,0,0,6.06-3.29c2.82-2.67,3.63-5.8,4.26-8.23.57-2.2,1-4,.45-6.05a24.81,24.81,0,0,0-1.25-3.46A4.72,4.72,0,0,1,84,60a2.73,2.73,0,0,1,1-2.25,2.5,2.5,0,0,1,2.09,0,12.13,12.13,0,0,1,4.7,2.67,14.06,14.06,0,0,1,3.67,6c.7,2.28.52,3.74.86,3.77.5,0,1.32-3.12,1.43-6.26a38.25,38.25,0,0,0-.2-4.12,40.24,40.24,0,0,0-.7-6,18.29,18.29,0,0,0-1.26-4.09,16.25,16.25,0,0,0-1.88-3.1c-.91-1.16-1.17-1.13-1.77-1.94-.83-1.1-2.08-3.46-1.33-4.87.95-1.81,4.89-1.47,7-1,1.3.29,4,1.12,7.9,5a38.67,38.67,0,0,1,9.71,17,43.54,43.54,0,0,1,1.28,6.87c.21,2,.83,8.3-.94,14C115.34,82.08,114.94,83.3,114.34,84.8Z" transform="translate(-31.47 -26.18)"/></svg>