<svg id="Layer_1" data-name="Layer 1" xmlns="http://www.w3.org/2000/svg" viewBox="0 0 667.91 382.02"><defs><style>.cls-1{fill:#fff;}</style></defs>
<title>MareUX-logo</title>
<path class="cls-1" d="M159.88,377.12c-12.2,26.66-17.38,57.85-10.95,86.79,2.44,11,7.45,22.79,16,30.43,10.2,9.13,24.25,11.42,37.28,7.63,13.95-4.05,24.45-13.64,33.2-24.88s16.49-23.83,24.19-36q24.75-39.09,45.67-80.46,20.73-41,37.5-83.77c11.52-29.29,23.64-59.83,26.11-91.48a136.78,136.78,0,0,0-.14-23.34c-.63-6.61-1.41-14.1-6.79-18.7-11.46-9.8-31.32-4-40.93,5.63s-14.19,24.72-18,37.51a184.64,184.64,0,0,0-7.21,42.12,190,190,0,0,0,13.81,83.1c5,12.1,10.8,27.18,24.89,30.66,14.86,3.67,29.86-4.88,39.14-15.93a76.63,76.63,0,0,0,10.46-16.29l-22.5.77a122.51,122.51,0,0,0,8.73,83.24c2.34,4.75,8.86,4.45,13.3,3.26,2.8-.75,12.15-4.85,9.88-9.47a116.19,116.19,0,0,1-8.65-79.63c2.39-9.59-19.71-5.06-22.5.77a66.18,66.18,0,0,1-8.75,14.22,32.83,32.83,0,0,1-4.74,4.69c-.43.33-1.59,1.45-1.05.83-1.87,2.14-1-.46.11.2s-2.38-1.52-2.74-1.81a23.9,23.9,0,0,1-5-6.32,118.48,118.48,0,0,1-7.69-16.17,181.94,181.94,0,0,1-13.65-72c.45-23.57,5-48.07,15-69.52,1.75-3.74,4.51-8.62,7-10.77-.77.66-1.12-.1-1,.2-.14-.47,2.62,2.1,2.46,1.9a10,10,0,0,1,1.66,3.71c3.62,12.56,2.31,27.3.45,40-3.95,27.14-14,53.24-23.95,78.67q-14.16,36.27-31.32,71.27-17.54,35.87-38,70.19Q240.94,435.54,230,452.25c-6.42,9.81-12.6,20.34-20.72,28.87a47.42,47.42,0,0,1-5.58,5.21c-.74.56-1.55,1.11-2.35,1.6.15-.09-3.39,1.74-1.89,1.12-2.28.94-6.1.38-9.6-1.61-9.28-5.29-14.26-16.57-16.93-26.41-7.28-26.84-2.75-57.85,8.69-82.85,4.88-10.68-18.29-8.61-21.74-1.06Z" transform="translate(-146.15 -121.7)"/><path class="cls-1" d="M445.23,297.33c-13,1.88-25.74,7.57-34.47,17.69-7.35,8.51-12.57,20-9.76,31.4,3.28,13.27,17,17.35,29.18,14.08,15.3-4.1,22.09-16.26,26.67-30.31l-23.34,2.33c-1.08,13.79,9.57,25.15,23.24,26.19,14.87,1.13,30.81-7.42,35-22.21,1.54-5.4-7-6.64-10.36-6.31-5.18.51-11.43,3.23-13,8.63a8.73,8.73,0,0,1-3.48,5c1.32-.9-.27,0-.27,0,1.94.82-2.41-2-.73-.6-4.22-3.57-7.62-6.93-7.13-13.06.43-5.48-6.13-6.71-10.37-6.3-5.35.52-11.21,3.24-13,8.63A51.42,51.42,0,0,1,429.2,343a36.15,36.15,0,0,1-2.55,3.42c-1.13,1.51-1.27.91.93.13,1.59-.56,1.23,1.13-.1-.37a15.26,15.26,0,0,1-2.18-2.7,16.27,16.27,0,0,1-1.65-7.62,25,25,0,0,1,6.6-16.06,26.39,26.39,0,0,1,6.2-5.29,22.66,22.66,0,0,1,3.92-1.8c-1.57.53,3.89-.71,2.25-.47,4.63-.67,12.19-3.08,13-8.63.77-5.39-6.46-6.87-10.36-6.3Z" transform="translate(-146.15 -121.7)"/><path class="cls-1" d="M482.17,287.77l2.87,53c.62,11.33,18.92,7.52,22.74.1,5.49-10.67,6.09-22.48,8.72-34a36.1,36.1,0,0,1,5-12.13,17.92,17.92,0,0,1,3.22-3.7c1.31-1.09,1.2-.71,2.71-1,4.37-.91,11-5.33,9.58-10.6-1.5-5.62-9.33-5.29-13.6-4.4-13,2.74-23,12.79-27.62,25-4.72,12.52-3.88,26.64-10,38.61l22.74.1-2.88-53c-.3-5.59-5.47-7.48-10.57-7.06-4,.33-13.15,3.57-12.85,9.06Z" transform="translate(-146.15 -121.7)"/><path class="cls-1" d="M513.68,325.15a77.26,77.26,0,0,0,45.68-14.08c9-6.33,22.62-20.55,12.8-31.64-2.42-2.74-9.27-1.36-12.14-.59-3.8,1-8.38,2.85-10.21,6.58-6.83,13.89-14.45,30.93-7.14,46.23,7,14.59,23.6,17.53,38.2,18.61,5.56.42,11.93-.82,16.39-4.39,3.38-2.71,3.09-6.53-1.85-6.9-12.33-.91-26.09-2.94-30.69-16.31-4.85-14.09,2-28.15,8.14-40.64l-22.36,6c5.87,6.63-3,15.79-8.11,19.62-5.92,4.45-12,6.12-19.27,6-4.82-.11-12.44,1.83-15.39,6-3.12,4.4,2.7,5.49,5.95,5.56Z" transform="translate(-146.15 -121.7)"/><path class="cls-1" d="M611.91,178.37a171.23,171.23,0,0,0-16.08,62.54,197.87,197.87,0,0,0,.43,31.46c1,10.13,2.28,20.71,6,30.24,3.47,8.83,9.31,16.64,18.2,20.51,9.76,4.25,21.31,3.62,31-.55s15.43-11.9,18.14-21.79c3-10.87,4.66-22.26,6.59-33.36q6.88-39.66,10-79.84c.71-8.85-22.54-4.31-23.13,3.09q-2.46,30.95-7.09,61.65-2.32,15.35-5.21,30.6c-1.63,8.64-2.56,18.43-6.23,26.52-.74,1.63-2.15,2.91-2.88,4.47a4.51,4.51,0,0,1-.65.48s2.19-.78,2.22-.83c.36-.58-.28,0-1.72-.42A19.47,19.47,0,0,1,636.5,311c-7-4.21-10.64-12.38-12.82-19.9-5.07-17.47-5.94-37-4.6-55a170.68,170.68,0,0,1,16-60.78c2.24-4.71-7.8-4.81-9.89-4.54-5,.66-10.94,2.81-13.24,7.63Z" transform="translate(-146.15 -121.7)"/><path class="cls-1" d="M672,131.85l44.68,97.06L739,277.44c6.47,14.05,12.35,29.27,23.57,40.31,3.85,3.79,11,2.52,15.43.58,2.85-1.25,9.92-6.08,6-9.91-11.34-11.16-17-26.61-23.5-40.79L739.05,220.9,695.2,125.64c-2.2-4.78-9-4.34-13.28-3.18-2.87.76-12,4.74-9.91,9.39Z" transform="translate(-146.15 -121.7)"/><path class="cls-1" d="M813.31,231.87l.75-17.24c.31-7.22-12.28-4.7-16.06-2.91-19,9-33,24.88-47.89,39.29l-48,46.63-96,93.25-54.45,52.89c-3.32,3.23-2.78,6.79,2.08,7.74,5,1,12.61-.73,16.39-4.4L757.83,264.8l25.79-25.05c7.06-6.85,14.34-14.86,23.37-19.13l-16.07-2.91L790.17,235c-.22,5,6.26,5,9.9,4.56,3.28-.43,13-2.92,13.24-7.64Z" transform="translate(-146.15 -121.7)"/></svg>