<?xml version="1.0" encoding="iso-8859-1"?>
<!-- Generator: Adobe Illustrator 19.0.0, SVG Export Plug-In . SVG Version: 6.00 Build 0)  -->
<svg version="1.1" id="Capa_1" xmlns="http://www.w3.org/2000/svg" xmlns:xlink="http://www.w3.org/1999/xlink" x="0px" y="0px"
	 fill="#392525" viewBox="0 0 512 512" style="enable-background:new 0 0 512 512;" xml:space="preserve">
<g>
	<g>
		<g>
			<path d="M296,98.5v-20c0-22.091-17.909-40-40-40s-40,17.909-40,40v20c0,22.091,17.909,40,40,40S296,120.591,296,98.5z"/>
			<path d="M512,253.5c0-55.14-44.859-100-100-100h-36.335c-10.575-9.329-24.454-15-39.665-15h-80h-80
				c-15.211,0-29.09,5.671-39.665,15H100c-55.141,0-100,44.86-100,100c0,0.334,0.009,0.667,0.013,1H0v119
				c0,55.14,44.859,100,100,100h312c55.141,0,100-44.86,100-100v-119h-0.013C511.991,254.167,512,253.834,512,253.5z M412,323.5H100
				c-38.598,0-70-31.402-70-70c0-38.598,31.402-70,70-70h17.89c-1.234,4.794-1.89,9.82-1.89,15v80h40v-70h30v39h140v-39h30v70h40
				v-80c0-5.18-0.656-10.206-1.89-15H412c38.598,0,70,31.402,70,70C482,292.098,450.598,323.5,412,323.5z"/>
		</g>
	</g>
</g>
<g>
</g>
<g>
</g>
<g>
</g>
<g>
</g>
<g>
</g>
<g>
</g>
<g>
</g>
<g>
</g>
<g>
</g>
<g>
</g>
<g>
</g>
<g>
</g>
<g>
</g>
<g>
</g>
<g>
</g>
</svg>
