<?xml version="1.0" encoding="iso-8859-1"?>
<!-- Generator: Adobe Illustrator 19.0.0, SVG Export Plug-In . SVG Version: 6.00 Build 0)  -->
<svg version="1.1" id="Capa_1" xmlns="http://www.w3.org/2000/svg" xmlns:xlink="http://www.w3.org/1999/xlink" x="0px" y="0px"
	 fill="#392525" viewBox="0 0 512 512" style="enable-background:new 0 0 512 512;" xml:space="preserve">
<g>
	<g>
		<path d="M0,53v60h30v346h226.013c0.01,0,0.02,0,0.029,0c0.007,0,0.014,0,0.021,0H482V113h30V53H0z M256.294,428.985
			c-0.238,0.001-0.476-0.005-0.714-0.007C247.504,428.753,241,422.129,241,414c0-8.271,6.729-15,15-15s15,6.729,15,15
			C271,422.172,264.429,428.826,256.294,428.985z M321,364c0,17.773-7.038,34.369-19.817,46.729
			c-0.096,0.093-0.197,0.178-0.294,0.271c-1.551-23.419-21.085-42-44.889-42c-23.636,0-43.06,18.321-44.851,41.505
			C198.768,398.417,191,381.486,191,362.995c0-20.822,7.281-41.147,20.502-57.233l29.213-36.601l42.055,89.011l27.265-43.422
			C316.927,331.681,321,348.774,321,362.064V364z M452,429h-70V183H130v246H60V113h392V429z"/>
	</g>
</g>
<g>
</g>
<g>
</g>
<g>
</g>
<g>
</g>
<g>
</g>
<g>
</g>
<g>
</g>
<g>
</g>
<g>
</g>
<g>
</g>
<g>
</g>
<g>
</g>
<g>
</g>
<g>
</g>
<g>
</g>
</svg>
